<svg
    xmlns="http://www.w3.org/2000/svg"
    width="44"
    height="39"
    viewBox="0 0 44 39"
    fill="none"
  >
    <path
      d="M38.8426 0.116625C36.9521 0.474477 34.7755 1.39467 32.9462 2.60114L31.863 3.31684L31.1579 3.1737C28.736 2.72383 25.1695 2.59091 22.8396 2.87719C20.8469 3.12258 19.5593 3.40886 17.3928 4.07344C12.13 5.67866 5.52851 9.71727 1.10366 14.0217L0 15.1055L1.02191 14.6045C3.38251 13.4492 6.41757 12.3654 9.50372 11.5883C12.7329 10.7704 15.0016 10.4534 17.7301 10.4636C19.7943 10.4739 20.9695 10.6068 22.5637 11.0158C23.4527 11.2407 25.3535 11.9564 25.6498 12.1711C25.844 12.304 25.8338 12.3245 25.5476 12.7539C24.9141 13.6639 22.6863 16.1688 21.0819 17.774C16.7082 22.1296 11.8337 26.0149 6.64239 29.2457C5.69201 29.8388 4.83361 30.3704 4.75186 30.4318C4.08762 30.8612 8.77817 28.6221 11.6395 27.1395C15.3797 25.1969 19.1914 22.9782 21.9097 21.1788C22.6148 20.7084 23.2075 20.3404 23.2279 20.3608C23.2892 20.4222 22.4717 21.4548 21.46 22.6102C20.1111 24.1438 16.6162 27.5894 15.1753 28.8061C10.914 32.3846 6.98984 35.002 2.146 37.4661C1.24672 37.9262 0.551829 38.3045 0.592705 38.3045C0.766429 38.3045 5.38544 36.5153 7.45991 35.6462C12.8045 33.4071 16.8206 31.4031 21.2556 28.7652C25.1695 26.4238 30.2688 22.8146 32.1594 21.0356C32.374 20.8413 32.5681 20.7084 32.609 20.7391C32.7623 20.9027 32.8645 21.7206 32.9258 23.2236C32.9667 24.6346 32.9462 25.0027 32.7623 25.8922C32.3433 27.9473 31.6586 29.8081 30.6061 31.8325C29.4104 34.1228 28.2557 35.6462 26.2221 37.6195C25.4863 38.3352 24.9038 38.918 24.9345 38.918C24.9652 38.918 25.5783 38.6215 26.2936 38.2636C28.7666 37.0265 31.5564 34.9816 33.6514 32.8856C37.2178 29.3275 39.6499 25.2276 40.7843 20.8822C41.3156 18.8272 41.4689 17.6514 41.4689 15.5554C41.4689 13.4798 41.3259 12.6108 40.6616 10.3921C40.3142 9.21628 40.2835 8.99135 40.2324 7.55994C40.1813 5.65821 40.3346 4.83004 40.9886 3.47021C41.3361 2.74428 41.612 2.34553 42.2456 1.68095C42.6952 1.2004 43.247 0.689188 43.4821 0.525598C43.9011 0.239317 43.9011 0.229093 43.666 0.137074C43.2164 -0.0367401 39.7215 -0.0469644 38.8426 0.116625Z"
      fill="black"
    />
  </svg>
